<svg id="Capa_1" enable-background="new 0 0 480 480" height="512" viewBox="0 0 480 480" width="512" xmlns="http://www.w3.org/2000/svg"><path d="m78.272 98.526-9.758 151.244c-17.7 10.578-23.474 33.502-12.895 51.202.993 1.662 2.115 3.245 3.353 4.733l5.507 6.622-.268 4.149-37.868 37.867c-3.124 3.124-3.124 8.189 0 11.314l112 112c3.124 3.124 8.189 3.124 11.314 0l28.56-28.559 23.3 28.017c1.52 1.828 3.773 2.885 6.15 2.885h160.333c3.898 0 7.229-2.809 7.886-6.652l32-187.216c.076-.445.114-.896.114-1.348v-17.47l21.373-21.373c14.169-14.169 14.169-37.142 0-51.311-5.112-5.112-11.634-8.58-18.73-9.96l34.73-34.73c14.169-14.169 14.169-37.142 0-51.311-5.112-5.112-11.634-8.58-18.73-9.96l10.73-10.73c14.17-14.17 14.17-37.144 0-51.314s-37.144-14.17-51.314 0l-18.73 18.73c-3.825-19.67-22.871-32.514-42.54-28.689-7.096 1.38-13.618 4.848-18.73 9.959l-10.059 10.061v-.686c0-19.882-16.118-36-36-36s-36 16.118-36 36v26.08c-16.516-11.054-38.866-6.626-49.92 9.89-3.967 5.927-6.083 12.898-6.08 20.03v72.686l-16 16v-79.786c.04-20.379-16.448-36.933-36.827-36.973-19.513-.039-35.683 15.122-36.901 34.597zm65.728 362.161-100.687-100.687 33.2-33.2 91.428 109.943zm280-240.4c.015 5.383-2.125 10.547-5.941 14.343l-10.059 10.056v-44.221c9.327 2.027 15.986 10.274 16 19.819zm-4.284-116.287c11.203 0 20.284 9.081 20.284 20.284 0 5.38-2.137 10.539-5.941 14.343l-26.059 26.059v-.686c-.017-14.894-9.191-28.245-23.089-33.6l20.462-20.463c3.797-3.815 8.961-5.953 14.343-5.937zm-22.343-66.059c7.921-7.921 20.765-7.921 28.686 0s7.921 20.765 0 28.686l-32 32-30.343 30.343c-4.18.987-8.149 2.718-11.716 5.11v-50.08c0-.224-.013-.445-.017-.668l5.39-5.391zm-80 0c7.909-7.924 20.745-7.936 28.669-.026 7.569 7.555 7.967 19.691.909 27.726-8.379-14.175-25.322-20.838-41.112-16.168zm-133.373 290.059v-236c0-11.046 8.954-20 20-20s20 8.954 20 20v156c0 4.418 3.582 8 8 8s8-3.582 8-8v-212c0-11.046 8.954-20 20-20s20 8.954 20 20v203.529c0 4.418 3.582 8 8 8s8-3.582 8-8v-155.529c0-11.046 8.954-20 20-20s20 8.954 20 20v180c0 4.418 3.582 8 8 8s8-3.582 8-8v-100c0-11.046 8.954-20 20-20s20 8.954 20 20v120.105l-30.749 179.895h-149.832l-140.145-168.525c-7.538-9.07-6.296-22.535 2.774-30.073 8.455-7.027 20.864-6.486 28.676 1.25l67.645 67.031c3.138 3.11 8.204 3.087 11.314-.052 1.484-1.498 2.317-3.522 2.317-5.631zm-68.9-248c11.537.014 20.886 9.363 20.9 20.9v99.1c0 4.418 3.581 8 8 8 2.122 0 4.157-.843 5.657-2.343l18.343-18.343v121.5l-54.015-53.524c-7.693-7.613-18.314-11.508-29.105-10.673l9.359-145.058c.729-10.991 9.846-19.538 20.861-19.559z"/><path d="m448.919 268.007c20.108 34.588 20.108 77.306 0 111.894l13.85 8.014c22.975-39.546 22.975-88.376 0-127.922z"/><path d="m435.075 371.927c17.233-29.66 17.233-66.285 0-95.946l-13.847 8.019c14.363 24.703 14.363 55.215 0 79.918z"/><path d="m31.081 211.993c-20.108-34.588-20.108-77.306 0-111.894l-13.85-8.014c-22.975 39.546-22.975 88.376 0 127.922z"/><path d="m44.925 108.073c-17.233 29.66-17.233 66.286 0 95.946l13.847-8.014c-14.363-24.703-14.363-55.215 0-79.918z"/></svg>