<?xml version="1.0" encoding="utf-8"?>
<svg x="0px" y="0px"
     viewBox="0 0 18 18"  xmlns="http://www.w3.org/2000/svg" xmlns:xlink="http://www.w3.org/1999/xlink">
    <path fill-rule="evenodd" clip-rule="evenodd"
          d="M17.007 0H.993A.993.993 0 0 0 0 .993v16.014c0 .548.445.993.993.993h8.621v-6.97H7.27V8.313h2.345V6.31c0-2.325 1.42-3.591 3.494-3.591.994 0 1.848.074 2.096.107v2.43h-1.438c-1.128 0-1.346.536-1.346 1.322v1.735h2.69l-.35 2.716h-2.34V18h4.587a.993.993 0 0 0 .993-.993V.993A.993.993 0 0 0 17.007 0z" fill="#fff"/>
</svg>