<?xml version="1.0" encoding="utf-8"?>
<svg xmlns="http://www.w3.org/2000/svg" width="30" height="30" viewBox="0 0 30 30">
    <path fill="#fff" d="M8.922 0h12.104c4.92 0 8.921 4.002 8.922 8.922v12.104c0 4.92-4.003 8.922-8.922 8.922H8.922C4.002 29.948 0 25.945 0 21.026V8.922C0 4.002 4.002 0 8.922 0zm12.104 26.935a5.909 5.909 0 005.909-5.909V8.922a5.909 5.909 0 00-5.909-5.91H8.922a5.909 5.909 0 00-5.91 5.91v12.104a5.909 5.909 0 005.91 5.909h12.104z"></path>
    <path fill="#fff" d="M0 7.745C0 3.475 3.475 0 7.745 0c4.271 0 7.746 3.475 7.746 7.745 0 4.271-3.475 7.746-7.746 7.746C3.475 15.49 0 12.016 0 7.745zm3.013 0a4.733 4.733 0 109.465 0 4.733 4.733 0 00-9.465 0z" transform="translate(7.228 7.228)"></path>
    <path fill="#fff" d="M1.856 3.712a1.856 1.856 0 100-3.712 1.856 1.856 0 000 3.712z" transform="translate(20.878 5.43)"></path>
</svg>