<?xml version="1.0" encoding="utf-8"?>
<!-- Generator: Adobe Illustrator 24.2.1, SVG Export Plug-In . SVG Version: 6.00 Build 0)  -->
<svg version="1.1" id="Layer_1" xmlns="http://www.w3.org/2000/svg" xmlns:xlink="http://www.w3.org/1999/xlink" x="0px" y="0px"
	 viewBox="0 0 1789.11 322.24" style="enable-background:new 0 0 1789.11 322.24;" xml:space="preserve">
<style type="text/css">
	.st0{display:none;fill:#FFB600;}
	.st1{display:none;}
	.st2{display:inline;}
	.st3{display:inline;fill:#FFFFFF;}
	.st4{fill:#FFFFFF;}
</style>
<rect x="-109.45" y="-449.65" class="st0" width="1983" height="1171"/>
<g class="st1">
	<path class="st2" d="M52.2,221.39h-0.67v103.32H24.16V75.17h27.37v30.05h0.67c13.46-22.7,33.16-34.05,59.09-34.05
		c22.03,0,39.23,7.65,51.58,22.95c12.35,15.3,18.53,35.8,18.53,61.51c0,28.6-6.96,51.49-20.86,68.69
		c-13.91,17.19-32.94,25.79-57.09,25.79C81.3,250.1,64.22,240.53,52.2,221.39z M51.53,152.45v23.87c0,14.13,4.59,26.12,13.77,35.97
		c9.18,9.85,20.84,14.77,34.97,14.77c16.58,0,29.57-6.34,38.98-19.03c9.4-12.69,14.1-30.32,14.1-52.91
		c0-19.03-4.4-33.94-13.19-44.73c-8.79-10.79-20.7-16.19-35.72-16.19c-15.92,0-28.71,5.54-38.39,16.61
		C56.37,121.88,51.53,135.76,51.53,152.45z"/>
	<path class="st2" d="M237.31,31.77c-4.9,0-9.07-1.67-12.52-5.01c-3.45-3.34-5.17-7.57-5.17-12.69c0-5.12,1.72-9.37,5.17-12.77
		c3.45-3.39,7.62-5.09,12.52-5.09c5.01,0,9.26,1.7,12.77,5.09c3.51,3.4,5.26,7.65,5.26,12.77c0,4.9-1.75,9.07-5.26,12.52
		C246.57,30.05,242.32,31.77,237.31,31.77z M250.66,198.36c0,15.69,6.06,23.54,18.19,23.54c4.9,0,9.29-0.61,13.19-1.84v24.7
		c-2.12,0.56-4.92,1.09-8.43,1.59s-7.21,0.75-11.1,0.75c-5.45,0-10.57-0.89-15.36-2.67c-4.79-1.78-8.93-4.51-12.44-8.18
		c-3.51-3.67-6.29-8.26-8.35-13.77c-2.06-5.51-3.09-11.94-3.09-19.28V75.17h27.37V198.36z"/>
	<path class="st2" d="M434.11,246.09h-27.38v-26.71h-0.67c-11.91,20.48-29.44,30.71-52.58,30.71c-17.03,0-30.35-4.51-39.98-13.52
		c-9.63-9.01-14.44-20.97-14.44-35.89c0-31.94,18.8-50.52,56.42-55.75l51.24-7.18c0-29.04-11.74-43.57-35.22-43.57
		c-20.59,0-39.17,7.01-55.75,21.03V87.19c16.8-10.68,36.16-16.02,58.09-16.02c40.17,0,60.26,21.26,60.26,63.76V246.09z
		 M406.73,159.63l-41.23,5.68c-12.69,1.78-22.26,4.92-28.71,9.43c-6.46,4.51-9.68,12.49-9.68,23.95c0,8.35,2.98,15.16,8.93,20.45
		c5.95,5.29,13.88,7.93,23.79,7.93c13.58,0,24.79-4.76,33.63-14.27s13.27-21.56,13.27-36.14V159.63z"/>
	<path class="st2" d="M627.57,246.09h-27.38v-97.48c0-36.28-13.24-54.42-39.73-54.42c-13.69,0-25.01,5.15-33.97,15.44
		c-8.96,10.29-13.44,23.29-13.44,38.98v97.48h-27.37V75.17h27.37v28.38h0.67c12.91-21.59,31.6-32.38,56.08-32.38
		c18.69,0,32.99,6.04,42.9,18.11c9.9,12.08,14.86,29.52,14.86,52.33V246.09z"/>
	<path class="st2" d="M750.58,250.1c-25.26,0-45.43-7.98-60.51-23.95c-15.08-15.97-22.62-37.14-22.62-63.51
		c0-28.71,7.84-51.13,23.54-67.27c15.69-16.13,36.89-24.2,63.6-24.2c25.48,0,45.37,7.85,59.67,23.54
		c14.3,15.69,21.45,37.45,21.45,65.26c0,27.27-7.71,49.1-23.12,65.52C797.18,241.89,776.51,250.1,750.58,250.1z M752.59,94.2
		c-17.58,0-31.49,5.98-41.73,17.94c-10.24,11.96-15.36,28.46-15.36,49.49c0,20.25,5.17,36.22,15.52,47.9
		c10.35,11.69,24.2,17.53,41.56,17.53c17.69,0,31.3-5.73,40.81-17.19c9.51-11.46,14.27-27.76,14.27-48.91
		c0-21.37-4.76-37.83-14.27-49.41C783.89,99.98,770.28,94.2,752.59,94.2z"/>
	<path class="st3" d="M995.96,238.25c-13.13,7.9-28.71,11.85-46.74,11.85c-24.37,0-44.04-7.93-59.01-23.79
		c-14.97-15.86-22.45-36.41-22.45-61.68c0-28.15,8.07-50.77,24.2-67.85c16.13-17.08,37.67-25.62,64.6-25.62
		c15.02,0,28.26,2.78,39.73,8.35v28.04c-12.69-8.9-26.26-13.35-40.73-13.35c-17.47,0-31.8,6.26-42.98,18.78
		s-16.78,28.96-16.78,49.33c0,20.03,5.26,35.83,15.77,47.4c10.52,11.57,24.62,17.36,42.31,17.36c14.91,0,28.93-4.95,42.06-14.86
		V238.25z"/>
	<path class="st3" d="M1174.73,167.47h-120.68c0.44,19.03,5.56,33.72,15.36,44.07c9.79,10.35,23.26,15.52,40.39,15.52
		c19.25,0,36.94-6.34,53.08-19.03v25.71c-15.02,10.91-34.89,16.36-59.59,16.36c-24.15,0-43.12-7.76-56.92-23.29
		c-13.8-15.52-20.7-37.36-20.7-65.52c0-26.6,7.54-48.27,22.62-65.02c15.08-16.75,33.8-25.12,56.17-25.12s39.67,7.23,51.91,21.7
		c12.24,14.47,18.36,34.55,18.36,60.26V167.47z M1146.68,144.27c-0.11-15.8-3.92-28.1-11.43-36.89
		c-7.51-8.79-17.95-13.19-31.3-13.19c-12.91,0-23.87,4.62-32.88,13.85c-9.01,9.24-14.58,21.31-16.69,36.22H1146.68z"/>
	<path class="st3" d="M1358,246.09h-27.38v-97.48c0-36.28-13.24-54.42-39.73-54.42c-13.69,0-25.01,5.15-33.97,15.44
		c-8.96,10.29-13.44,23.29-13.44,38.98v97.48h-27.38V75.17h27.38v28.38h0.67c12.91-21.59,31.6-32.38,56.08-32.38
		c18.7,0,32.99,6.04,42.9,18.11c9.9,12.08,14.86,29.52,14.86,52.33V246.09z"/>
	<path class="st3" d="M1488.87,244.42c-6.46,3.56-14.97,5.34-25.54,5.34c-29.94,0-44.9-16.69-44.9-50.08V98.54h-29.38V75.17h29.38
		V33.44l27.37-8.85v50.58h43.07v23.37h-43.07v96.31c0,11.46,1.95,19.64,5.84,24.54c3.89,4.9,10.35,7.34,19.36,7.34
		c6.9,0,12.85-1.89,17.86-5.68V244.42z"/>
	<path class="st3" d="M1660.12,167.47h-120.68c0.44,19.03,5.56,33.72,15.36,44.07c9.79,10.35,23.26,15.52,40.39,15.52
		c19.25,0,36.94-6.34,53.08-19.03v25.71c-15.02,10.91-34.88,16.36-59.59,16.36c-24.15,0-43.12-7.76-56.92-23.29
		c-13.8-15.52-20.7-37.36-20.7-65.52c0-26.6,7.54-48.27,22.62-65.02c15.08-16.75,33.8-25.12,56.17-25.12s39.67,7.23,51.91,21.7
		c12.24,14.47,18.36,34.55,18.36,60.26V167.47z M1632.08,144.27c-0.11-15.8-3.92-28.1-11.43-36.89
		c-7.51-8.79-17.94-13.19-31.3-13.19c-12.91,0-23.87,4.62-32.88,13.85c-9.01,9.24-14.58,21.31-16.69,36.22H1632.08z"/>
	<path class="st3" d="M1790.65,102.88c-4.79-3.67-11.68-5.51-20.7-5.51c-11.68,0-21.45,5.51-29.29,16.52
		c-7.84,11.02-11.77,26.04-11.77,45.07v87.13h-27.37V75.17h27.37v35.22h0.67c3.89-12.02,9.85-21.39,17.86-28.13
		c8.01-6.73,16.97-10.1,26.87-10.1c7.12,0,12.57,0.78,16.36,2.34V102.88z"/>
</g>
<g>
	<path d="M160.92,87.16v152.98h-41.87V118.5H63.63v121.65H21.89V87.16H160.92z"/>
	<path d="M244.93,87.16v60.48c0,6.39-1.05,21.99-3.15,46.8l70.61-107.28h50.22v152.98h-40.37v-61.03c0-10.85,0.91-26.18,2.74-45.98
		l-70.33,107h-50.08V87.16H244.93z"/>
	<path d="M503.55,240.14l-8.07-20.8h-1.09c-7.03,8.85-14.25,14.98-21.69,18.4c-7.44,3.42-17.13,5.13-29.08,5.13
		c-14.69,0-26.25-4.19-34.69-12.59c-8.44-8.39-12.66-20.34-12.66-35.85c0-16.24,5.68-28.21,17.04-35.92
		c11.36-7.71,28.48-11.97,51.38-12.79l26.55-0.82v-6.71c0-15.51-7.94-23.26-23.81-23.26c-12.22,0-26.59,3.69-43.1,11.08L410.5,97.84
		c17.6-9.21,37.13-13.82,58.57-13.82c20.52,0,36.26,4.47,47.21,13.41c10.95,8.94,16.42,22.53,16.42,40.78v101.94H503.55z
		 M491.23,169.26l-16.15,0.55c-12.13,0.37-21.16,2.56-27.09,6.57c-5.93,4.02-8.89,10.13-8.89,18.34c0,11.77,6.75,17.65,20.25,17.65
		c9.67,0,17.4-2.78,23.19-8.35c5.79-5.56,8.69-12.95,8.69-22.17V169.26z"/>
	<path d="M617.4,87.16V146h58.29V87.16h41.73v152.98h-41.73v-63.08H617.4v63.08h-41.73V87.16H617.4z"/>
	<path d="M900.23,163.38c0,24.9-6.57,44.38-19.7,58.43c-13.14,14.05-31.43,21.07-54.87,21.07c-14.69,0-27.64-3.21-38.86-9.65
		c-11.22-6.43-19.84-15.67-25.86-27.71c-6.02-12.04-9.03-26.09-9.03-42.14c0-24.99,6.52-44.42,19.57-58.29
		c13.04-13.86,31.38-20.8,55.01-20.8c14.69,0,27.64,3.19,38.86,9.58c11.22,6.39,19.84,15.55,25.86,27.5
		C897.22,133.32,900.23,147.33,900.23,163.38z M794.46,163.38c0,15.14,2.48,26.59,7.46,34.34c4.97,7.75,13.07,11.63,24.29,11.63
		c11.13,0,19.13-3.85,24.01-11.56c4.88-7.71,7.32-19.18,7.32-34.41c0-15.14-2.46-26.5-7.39-34.07c-4.93-7.57-13-11.36-24.22-11.36
		c-11.13,0-19.16,3.76-24.08,11.29C796.92,136.77,794.46,148.15,794.46,163.38z"/>
	<path class="st4" d="M1079.35,209.63h22.3v85.38h-37.49v-54.87H934.71V87.16h41.73v121.65h61.03V87.16h41.87V209.63z"/>
	<path class="st4" d="M1196.75,242.88c-24.63,0-43.88-6.79-57.74-20.39c-13.87-13.59-20.8-32.84-20.8-57.74
		c0-25.63,6.41-45.45,19.22-59.45c12.82-14,30.54-21,53.16-21c21.62,0,38.45,6.16,50.49,18.47c12.04,12.32,18.06,29.33,18.06,51.04
		v20.25h-98.66c0.46,11.86,3.97,21.12,10.54,27.78c6.57,6.66,15.78,9.99,27.64,9.99c9.21,0,17.93-0.96,26.14-2.87
		s16.78-4.97,25.72-9.17v32.29c-7.3,3.65-15.1,6.36-23.4,8.14C1218.83,241.99,1208.7,242.88,1196.75,242.88z M1190.87,113.98
		c-8.85,0-15.78,2.81-20.8,8.42c-5.02,5.61-7.89,13.57-8.62,23.88h58.57c-0.18-10.31-2.87-18.27-8.07-23.88
		C1206.74,116.79,1199.71,113.98,1190.87,113.98z"/>
	<path class="st4" d="M1334.82,87.16V146h58.29V87.16h41.73v152.98h-41.73v-63.08h-58.29v63.08h-41.73V87.16H1334.82z"/>
	<path class="st4" d="M1605.2,87.16v31.33h-50.08v121.65h-41.73V118.5h-50.22V87.16H1605.2z"/>
	<path class="st4" d="M1717.68,242.88c-17.97,0-32.07-6.52-42.28-19.57h-2.19c1.46,12.77,2.19,20.16,2.19,22.17v61.99h-41.73V87.16
		h33.93l5.88,19.84h1.92c9.76-15.14,24.22-22.71,43.38-22.71c18.06,0,32.2,6.98,42.42,20.94c10.22,13.96,15.33,33.34,15.33,58.15
		c0,16.33-2.39,30.51-7.18,42.55c-4.79,12.04-11.61,21.21-20.46,27.5C1740.03,239.73,1729.63,242.88,1717.68,242.88z
		 M1705.36,117.68c-10.31,0-17.84,3.17-22.58,9.51c-4.74,6.34-7.21,16.81-7.39,31.4v4.52c0,16.42,2.44,28.19,7.32,35.3
		c4.88,7.12,12.61,10.67,23.19,10.67c18.7,0,28.05-15.42,28.05-46.25c0-15.05-2.3-26.34-6.91-33.87
		C1722.44,121.44,1715.21,117.68,1705.36,117.68z"/>
</g>
</svg>
