<?xml version="1.0" encoding="utf-8"?>
<svg xmlns="http://www.w3.org/2000/svg" width="30" height="25" viewBox="0 0 30 25">
    <path fill="#fff" d="M29.462 2.933c-.665.295-1.355.528-2.064.696A6.435 6.435 0 0029.097.923a.337.337 0 00-.494-.393 11.912 11.912 0 01-3.156 1.304.836.836 0 01-.75-.186 6.454 6.454 0 00-4.27-1.612 6.9 6.9 0 00-2.045.316 6.253 6.253 0 00-4.214 4.505 6.886 6.886 0 00-.153 2.377.239.239 0 01-.26.26C9.176 7.07 5.044 4.862 2.124 1.28a.337.337 0 00-.553.043 6.45 6.45 0 00-.874 3.245c0 1.75.703 3.399 1.924 4.6a5.784 5.784 0 01-1.472-.57.337.337 0 00-.501.292 6.462 6.462 0 003.77 5.954 5.752 5.752 0 01-1.226-.103.338.338 0 00-.385.435 6.469 6.469 0 005.11 4.4 11.91 11.91 0 01-6.67 2.026H.498c-.23 0-.425.149-.483.372-.058.22.048.45.244.565a17.715 17.715 0 008.902 2.4c2.736 0 5.296-.543 7.608-1.614a16.797 16.797 0 005.566-4.17 18.287 18.287 0 003.408-5.709c.758-2.024 1.158-4.185 1.158-6.247V7.1c0-.332.15-.643.411-.855a12.757 12.757 0 002.567-2.817c.187-.281-.109-.633-.418-.496z"></path>
</svg>