<?xml version="1.0" encoding="utf-8"?>
<!-- Generator: Adobe Illustrator 24.2.1, SVG Export Plug-In . SVG Version: 6.00 Build 0)  -->
<svg version="1.1" id="Layer_1" xmlns="http://www.w3.org/2000/svg" xmlns:xlink="http://www.w3.org/1999/xlink" x="0px" y="0px"
	 viewBox="0 0 1796.21 371.73" style="enable-background:new 0 0 1796.21 371.73;" xml:space="preserve">
<style type="text/css">
	.st0{display:none;fill:#FFB600;}
	.st1{fill:#FFFFFF;}
	.st2{display:none;}
	.st3{display:inline;}
	.st4{font-family:'OpenSans-Bold';}
	.st5{font-size:280.2362px;}
	.st6{display:inline;fill:#FFFFFF;}
</style>
<rect x="-105.89" y="-405.14" class="st0" width="1983" height="1171"/>
<g  fill="#fff">
	<path d="M55.75,265.9h-0.67v103.32H27.71V119.68h27.37v30.05h0.67c13.46-22.7,33.16-34.05,59.09-34.05
		c22.03,0,39.23,7.65,51.58,22.95c12.35,15.3,18.53,35.8,18.53,61.51c0,28.6-6.96,51.49-20.86,68.69
		c-13.91,17.19-32.94,25.79-57.09,25.79C84.85,294.61,67.77,285.04,55.75,265.9z M55.08,196.96v23.87
		c0,14.13,4.59,26.12,13.77,35.97c9.18,9.85,20.84,14.77,34.97,14.77c16.58,0,29.57-6.34,38.98-19.03
		c9.4-12.69,14.1-30.32,14.1-52.91c0-19.03-4.4-33.94-13.19-44.73c-8.79-10.79-20.7-16.19-35.72-16.19
		c-15.92,0-28.71,5.54-38.39,16.61C59.92,166.39,55.08,180.27,55.08,196.96z"/>
	<path d="M240.86,76.28c-4.9,0-9.07-1.67-12.52-5.01c-3.45-3.34-5.17-7.57-5.17-12.69c0-5.12,1.72-9.37,5.17-12.77
		c3.45-3.39,7.62-5.09,12.52-5.09c5.01,0,9.26,1.7,12.77,5.09c3.51,3.4,5.26,7.65,5.26,12.77c0,4.9-1.75,9.07-5.26,12.52
		C250.13,74.56,245.87,76.28,240.86,76.28z M254.22,242.87c0,15.69,6.06,23.54,18.19,23.54c4.9,0,9.29-0.61,13.19-1.84v24.7
		c-2.12,0.56-4.92,1.09-8.43,1.59s-7.21,0.75-11.1,0.75c-5.45,0-10.57-0.89-15.36-2.67c-4.79-1.78-8.93-4.51-12.44-8.18
		c-3.51-3.67-6.29-8.26-8.35-13.77c-2.06-5.51-3.09-11.94-3.09-19.28V119.68h27.37V242.87z"/>
	<path d="M437.66,290.61h-27.38V263.9h-0.67c-11.91,20.48-29.44,30.71-52.58,30.71c-17.03,0-30.35-4.51-39.98-13.52
		c-9.63-9.01-14.44-20.97-14.44-35.89c0-31.94,18.8-50.52,56.42-55.75l51.24-7.18c0-29.04-11.74-43.57-35.22-43.57
		c-20.59,0-39.17,7.01-55.75,21.03V131.7c16.8-10.68,36.16-16.02,58.09-16.02c40.17,0,60.26,21.26,60.26,63.76V290.61z
		 M410.29,204.14l-41.23,5.68c-12.69,1.78-22.26,4.92-28.71,9.43c-6.46,4.51-9.68,12.49-9.68,23.95c0,8.35,2.98,15.16,8.93,20.45
		c5.95,5.29,13.88,7.93,23.79,7.93c13.58,0,24.79-4.76,33.63-14.27s13.27-21.56,13.27-36.14V204.14z"/>
	<path d="M631.12,290.61h-27.38v-97.48c0-36.28-13.24-54.42-39.73-54.42c-13.69,0-25.01,5.15-33.97,15.44
		c-8.96,10.29-13.44,23.29-13.44,38.98v97.48h-27.37V119.68h27.37v28.38h0.67c12.91-21.59,31.6-32.38,56.08-32.38
		c18.69,0,32.99,6.04,42.9,18.11c9.9,12.08,14.86,29.52,14.86,52.33V290.61z"/>
	<path d="M754.14,294.61c-25.26,0-45.43-7.98-60.51-23.95c-15.08-15.97-22.62-37.14-22.62-63.51c0-28.71,7.84-51.13,23.54-67.27
		c15.69-16.13,36.89-24.2,63.6-24.2c25.48,0,45.37,7.85,59.67,23.54c14.3,15.69,21.45,37.45,21.45,65.26
		c0,27.27-7.71,49.1-23.12,65.52C800.73,286.41,780.07,294.61,754.14,294.61z M756.14,138.71c-17.58,0-31.49,5.98-41.73,17.94
		c-10.24,11.96-15.36,28.46-15.36,49.49c0,20.25,5.17,36.22,15.52,47.9c10.35,11.69,24.2,17.53,41.56,17.53
		c17.69,0,31.3-5.73,40.81-17.19c9.51-11.46,14.27-27.76,14.27-48.91c0-21.37-4.76-37.83-14.27-49.41
		C787.44,144.5,773.83,138.71,756.14,138.71z"/>
	<path class="st1" d="M999.51,282.76c-13.13,7.9-28.71,11.85-46.74,11.85c-24.37,0-44.04-7.93-59.01-23.79
		c-14.97-15.86-22.45-36.41-22.45-61.68c0-28.15,8.07-50.77,24.2-67.85c16.13-17.08,37.67-25.62,64.6-25.62
		c15.02,0,28.26,2.78,39.73,8.35v28.04c-12.69-8.9-26.26-13.35-40.73-13.35c-17.47,0-31.8,6.26-42.98,18.78
		s-16.78,28.96-16.78,49.33c0,20.03,5.26,35.83,15.77,47.4c10.52,11.57,24.62,17.36,42.31,17.36c14.91,0,28.93-4.95,42.06-14.86
		V282.76z"/>
	<path class="st1" d="M1178.28,211.99H1057.6c0.44,19.03,5.56,33.72,15.36,44.07c9.79,10.35,23.26,15.52,40.39,15.52
		c19.25,0,36.94-6.34,53.08-19.03v25.71c-15.02,10.91-34.89,16.36-59.59,16.36c-24.15,0-43.12-7.76-56.92-23.29
		c-13.8-15.52-20.7-37.36-20.7-65.52c0-26.6,7.54-48.27,22.62-65.02c15.08-16.75,33.8-25.12,56.17-25.12s39.67,7.23,51.91,21.7
		c12.24,14.47,18.36,34.55,18.36,60.26V211.99z M1150.24,188.79c-0.11-15.8-3.92-28.1-11.43-36.89
		c-7.51-8.79-17.95-13.19-31.3-13.19c-12.91,0-23.87,4.62-32.88,13.85c-9.01,9.24-14.58,21.31-16.69,36.22H1150.24z"/>
	<path class="st1" d="M1361.56,290.61h-27.38v-97.48c0-36.28-13.24-54.42-39.73-54.42c-13.69,0-25.01,5.15-33.97,15.44
		c-8.96,10.29-13.44,23.29-13.44,38.98v97.48h-27.38V119.68h27.38v28.38h0.67c12.91-21.59,31.6-32.38,56.08-32.38
		c18.7,0,32.99,6.04,42.9,18.11c9.9,12.08,14.86,29.52,14.86,52.33V290.61z"/>
	<path class="st1" d="M1492.42,288.94c-6.46,3.56-14.97,5.34-25.54,5.34c-29.94,0-44.9-16.69-44.9-50.08V143.05h-29.38v-23.37h29.38
		V77.95l27.37-8.85v50.58h43.07v23.37h-43.07v96.31c0,11.46,1.95,19.64,5.84,24.54c3.89,4.9,10.35,7.34,19.36,7.34
		c6.9,0,12.85-1.89,17.86-5.68V288.94z"/>
	<path class="st1" d="M1663.68,211.99H1543c0.44,19.03,5.56,33.72,15.36,44.07c9.79,10.35,23.26,15.52,40.39,15.52
		c19.25,0,36.94-6.34,53.08-19.03v25.71c-15.02,10.91-34.88,16.36-59.59,16.36c-24.15,0-43.12-7.76-56.92-23.29
		c-13.8-15.52-20.7-37.36-20.7-65.52c0-26.6,7.54-48.27,22.62-65.02c15.08-16.75,33.8-25.12,56.17-25.12s39.67,7.23,51.91,21.7
		c12.24,14.47,18.36,34.55,18.36,60.26V211.99z M1635.64,188.79c-0.11-15.8-3.92-28.1-11.43-36.89
		c-7.51-8.79-17.94-13.19-31.3-13.19c-12.91,0-23.87,4.62-32.88,13.85c-9.01,9.24-14.58,21.31-16.69,36.22H1635.64z"/>
	<path class="st1" d="M1794.21,147.39c-4.79-3.67-11.68-5.51-20.7-5.51c-11.68,0-21.45,5.51-29.29,16.52
		c-7.84,11.02-11.77,26.04-11.77,45.07v87.13h-27.37V119.68h27.37v35.22h0.67c3.89-12.02,9.85-21.39,17.86-28.13
		c8.01-6.73,16.97-10.1,26.87-10.1c7.12,0,12.57,0.78,16.36,2.34V147.39z"/>
</g>
<text transform="matrix(1 0 0 1 3.553 284.6558)" class="st2"><tspan x="0" y="0" class="st3 st4 st5">пиано</tspan><tspan x="912.82" y="0" class="st6 st4 st5">центр</tspan></text>
</svg>
