<?xml version="1.0" encoding="utf-8"?>
<!-- Generator: Adobe Illustrator 21.1.0, SVG Export Plug-In . SVG Version: 6.00 Build 0)  -->
<svg version="1.1" id="Layer_1" xmlns="http://www.w3.org/2000/svg" xmlns:xlink="http://www.w3.org/1999/xlink" x="0px" y="0px"
	 viewBox="0 0 1500 725" style="enable-background:new 0 0 1500 725;" xml:space="preserve">
<g>
	<path d="M575.3,514.7c22.4-12.1,44.9-24.2,67.5-35.8c22.7-11.6,45.5-23,68.5-33.9c22.8-10.8,45.8-20.9,69-31.4
		c-7.2-11.3-31.3-27.3-41.4-27.9c-3.4-0.2-7,0.6-10.2,1.7c-7.2,2.5-14.4,5.4-21.5,8.3c-7.3,3-14.4,6.2-21.8,9.4
		c-0.4-1.5-0.9-2.3-0.7-2.8c12-34.2,24.1-68.4,36.3-102.5c0.9-2.5,2.8-5,4.9-6.5c11.5-8.4,23.2-16.5,36.8-26.1
		c-2.2,5.1-3.8,8-4.9,11.1c-5.5,15.4-11.2,30.7-16,46.4c-3.2,10.3-0.3,19.5,8.7,25.9c7.1,5,14.4,9.8,22,14c12.8,7,24.7,6.3,34.5-6
		c1.7-2.2,4.1-3.8,5.9-5.9c47.1-51.8,85.4-109.5,114.9-173c14.6-31.4,26.2-63.9,32.5-98.1c3-16.2-0.4-29.7-12.5-40.9
		c-14.3-13.3-30.4-23.4-49.3-28.6c-11.4-3.2-22.5-3-31.8,4.8C851.2,30,834.8,42.8,821,57.9c-58.6,64.3-104.1,137.3-141.3,215.7
		c-2.5,5.3-5.2,10.6-8,16.2c-6.7,2.1-13.3,4.2-18.8,6c-6.3-3.4-7-7.6-5.4-12.4c1.5-4.6,3-9.4,5.2-13.7
		c11.8-23.3,23.9-46.6,35.9-69.8c1.6-3.1,3.1-6.4,5-10.5c-17.3,0-32.7,0-48.3,0c-2.1,3.1-4.2,6.2-6.8,10c-2.7-2.5-4.5-4.2-6.4-5.7
		c-21.4-17.1-48.7-16.2-68.5,2.4c-5.1,4.8-9.9,10-14.1,15.5c-15.9,20.6-29.1,42.8-33.9,68.9c-3.1,16.8,4.9,33.5,21.3,43.3
		c18.9,11.4,32.6,10.5,46.6-0.6c7-5.6,13.7-11.8,21.2-18.4c9.6,21.1,24.4,33,49.8,23.9c-7.8,20.1-15,38.3-21.7,56.6
		c-8,21.8-7.5,23.2,10.1,38.5c0.3,0.3,0.2,1.1,0.1,0.5c-69.4,38.1-138.4,75.9-207.4,113.8c-0.3-0.3-0.6-0.5-1-0.8
		c41-40.1,82-80.1,123.2-120.3c-1.5-3.6-2-6.6-3.7-8.6c-12.1-14-25.8-24.9-46.2-19.9c-4.4,1.1-8.9,1.8-13.3,2.9
		c-80.5,19.6-159.5,44-236.1,75.5c-38.7,15.9-76.3,34.4-114.2,52.1c-8.1,3.8-15.2,9.5-22.1,13.9c1.5,16.9,25.2,36.6,51.9,43.9
		c89.2-53.5,185.1-94.7,286.7-128.2c-2.3,2.7-3.1,3.8-4.1,4.6c-41.4,35.7-78.3,75.8-113.3,117.7c-13.9,16.6-26.7,34.1-39.4,51.6
		c-6.7,9.3-5.5,14.5,3.8,21.1c5.1,3.6,10.9,6.2,16.4,9.2c9.9,5.5,18.5,4.4,28.1-2.1c32.7-22.1,65.9-43.4,99-65
		c3.1-2.1,6.5-3.7,9.9-5.6c45.7,31.3,94,56.2,145.1,75.5c51.4,19.5,104.2,33.4,158.9,41.7c7.9-14.6,15.4-28.5,23.4-43.3
		c-101.2-15.8-196.1-43.4-282-101.3C530.7,539.3,552.9,526.8,575.3,514.7z M751.5,239.2c31.6-55,68.1-106.4,113.9-150.6
		c8.2-8,17.5-14.9,26.8-21.7c3.3-2.5,7.8-3.3,13.4-5.5c3.3,15.4,0.6,27.7-2,39.8c-8.1,37.8-23.6,72.8-41.9,106.7
		c-15.5,28.6-32.2,56.4-54.8,80.1c-5.2,5.4-11.5,9.7-17.3,14.6c-0.9-0.6-1.7-1.1-2.6-1.7c1-3.3,1.4-7,3-10
		c7.8-14.4,15.4-28.9,24.2-42.8c10.4-16.5,21.9-32.4,32.8-48.5c1.9-2.8,3.7-5.6,6.4-9.7c-14.1,0-26.8,0-40.7,0
		c-17,21.5-38.9,39.1-64.1,56.5C750.1,242.7,750.6,240.8,751.5,239.2z M614.7,242.3c-8.4,20.8-21.6,38.2-39.8,51.5
		c-1.1,0.8-2.5,1.1-3.7,1.6c-5.7-1.6-7.4-5.6-6.4-10.5c5.1-23.9,16.5-44.3,35.4-60.2c1.5-1.3,3.8-1.6,5.5-2.2
		C615.4,228.8,618.2,233.7,614.7,242.3z"/>
	<path d="M286.6,227.3c-1,4.9-3.3,9-5.2,13.3c-7.2,15.9-15.2,31.4-21,47.8c-5.6,15.7,4.3,26.7,15.5,35.9
		c11.6,9.4,22.5,10.3,34.6,1.6c11-7.9,20.7-17.6,31-26.5c2.2-1.9,4.2-3.9,7-6.5c2.6,18.4,11.6,30.9,27.5,37
		c16.9,6.5,29.3-5.9,43.7-13.1c-1.4,4.2-2.4,7.2-3.6,11c16.6,0,32.2,0,48.4,0C489,282,513.4,236.3,538.7,189c-15.3,0-28.4,0-40.5,0
		c-5.9-10.7-11.2-20.1-17-30.7c77.7-1.5,154.4-2.9,231.6-4.4c6-11.4,11.7-22.4,18.1-34.7c-127.2-2.5-252.9-4.9-379.1-7.4
		c-8.6,16.2-17.2,32.4-26.2,49.3c3.1,0,4.5,0,5.9,0c24.8-0.5,49.6-1.6,74.4-1.3c40.8,0.4,65.6,38.1,48.9,74.5
		c-11.4,24.8-31,41.7-56,52.5c-0.5,0.2-1.3-0.3-3.9-0.8c0.9-4.1,1.1-8.5,2.9-12.1c11.9-23.7,24.2-47.2,36.4-70.8
		c2.2-4.2,4.2-8.6,6.7-13.5c-17.2,0-33.1,0-49.1,0c-3.3,5.4-6.4,10.5-9.6,15.5c-16.7,26.3-33.8,52.2-56.2,74.2
		c-3.3,3.2-7.4,5.7-11,8.4c-6-5.4-2.2-9.7-0.4-13.3c10.3-20.2,21.1-40.2,31.7-60.2c4.2-7.9,8.5-15.8,13.2-24.7
		c-34.5,0-67.5,0-100.8,0c-40.4,70.4-93.7,130.3-150.3,188.2c-0.5-1.6-1-2.3-0.8-2.8c0.9-2.6,2-5.2,3.1-7.7
		c33.8-76,76.9-146.5,126.7-212.9c18.9-25.1,37.9-50.2,57.3-75c8.1-10.3,7.9-20.3,1.3-30.9c-2-3.3-4-6.5-6.3-9.6
		c-7.3-9.8-16.5-14.8-29.1-12c-6.1,1.3-12.5,1.9-18.4,3.8C170.1,53.3,105.6,90.4,45.7,135.8C23.5,152.6,22.8,155.5,26,183
		c1.2,10.6,2.1,21.6,11.8,32.6c59.4-54.9,124.1-100.4,197.9-132.3c-0.8,2-2,3.5-3.3,5c-16.4,19.1-33.2,37.8-49.1,57.3
		C128.8,212.4,79.5,282.6,41.1,360c-12.4,25-23.5,50.6-29.1,78.3c-2.2,10.7-1.2,20.4,7.3,27.8c11.8,10.3,23.8,20.4,36.1,30
		c6.5,5.1,13.8,4.8,20.1-0.9c9.9-8.8,20.3-17.2,29.3-26.9c66.7-72,125.3-150.1,176.8-233.7C283.2,232.1,284.9,229.8,286.6,227.3z"/>
	<path d="M955.9,418.5c6,0,9.8-0.3,13.6,0.1c23.9,2.4,48,4.1,71.8,7.7c16.9,2.5,33.2,8.4,47.2,19c11.2,8.5,13.6,15.4,10.2,28.1
		c-11.2-10-23.3-17.9-38.1-21.2c-17.1-3.8-31.5-0.7-43.4,13.2c-11.4,13.2-23.9,25.5-35.7,38.3c-16,17.4-31.8,35-47.7,52.5
		c-0.4-0.3-0.8-0.5-1.3-0.8c16.9-31.7,33.7-63.4,51.2-96.4c-17.6,0-33.2,0-49.3,0c-2.2,3.5-4.2,7.1-6.6,10.6
		c-15.3,22.5-30.4,45.2-46.2,67.4c-5.2,7.3-11.8,13.7-18.2,20.2c-2,2.1-5.4,2.8-8.1,4.2c-0.8-0.7-1.7-1.5-2.5-2.2
		c2.4-6.3,4.2-12.9,7.3-18.8c12.2-24,24.7-47.7,37.1-71.6c1.5-2.8,2.6-5.8,4.3-9.6c-17.4,0-33,0-48.3,0
		c-9.6,14.9-18.3,29.7-28.2,43.6c-12.4,17.3-25.7,34-38.9,50.6c-3,3.8-6.4,8.5-14.7,6.7c2.2-6.3,3.5-12.3,6.2-17.7
		c12.3-24.3,25-48.4,37.5-72.5c1.6-3.2,3-6.5,5-10.8c-35,0-68.1,0-101.1,0c-8.5,14-16.6,27.9-25.3,41.4
		c-13.1,20.3-27.8,39.4-46.8,54.8c-7.6,6.2-15.8,10.1-26,8.5c-1.6-0.3-3.4,0.3-6.3,0.6c-0.7,3.2-2.3,6.6-1.8,9.6
		c2.1,15.3,10.6,26.6,24.4,33.1c12.3,5.8,23.1,0.4,32.9-7.2c3.8-3,7.6-6.3,10.6-10.1c10.5-13.5,21.2-26.9,30.6-41.1
		c10.8-16.3,20.3-33.4,30.4-50.1c2.1-3.4,3.6-8.1,9.9-4.9c-1.1,2.2-2.2,4.3-3.1,6.4c-8.5,18.4-17,36.7-25.3,55.2
		c-8.8,19.3-1.1,33.1,14.1,44.5c11.5,8.6,20.9,8.9,32.9,1c5.8-3.8,11.1-8.4,16.4-13c4.6-4,9-8.3,14-13.1
		c4.7,13.5,12.7,22.6,24.3,28.8c13.6,7.2,24.3-0.7,35.7-6.3c-21.6,40.5-43.3,81.1-65.4,122.6c17.3,0,33.2,0,49.7,0
		c38.1-63.9,85.2-121,137.5-176.7c0,4.2,0.2,5.9,0,7.6c-3.4,22.2,8.1,36,26.2,45.4c8.2,4.2,17.5,6.6,26.5,9.1
		c11.8,3.2,22.8,0.8,32.6-6.7c35.4-27.2,60.3-62,73.3-104.6c8-26.1,0-48.2-21-65.5c-6.1-5-12.9-9.1-20.7-14.6
		c73.2,1.6,144.9,3.3,216.6,4.9c7.6-13.7,14.8-26.5,22.6-40.6c-121.6,0-240.7,0-360.5,0C970.9,390.6,963.9,403.7,955.9,418.5z
		 M1049.9,557.8c-3,2.6-8.5,2.4-12.4,3.3c-7.7-16,3.8-55.5,19.4-70c13.1-1.2,21.2,6,29.2,15.6
		C1076.9,525.8,1066.2,543.8,1049.9,557.8z"/>
	<path d="M1365.7,226.9c-11.7,16.1-23.9,31.8-36.5,47.2c-4.6,5.6-9.5,11.9-18.1,12.8c-3.5-6.6,0.5-11.4,2.9-16
		c12.4-23.8,25.3-47.4,38-71.1c1.6-2.9,2.9-6,4.8-10c-17.2,0-32.8,0-48.8,0c-2.1,3.3-4.2,7-6.6,10.4c-16.6,23.3-33,46.8-50.1,69.7
		c-5.3,7-12.7,12.5-20.3,19.8c-4.8-8-1.7-12.4,0.4-16.4c12.3-23.5,24.9-46.9,37.3-70.3c2.2-4.2,4.3-8.4,7-13.8
		c-15,0-28.3-0.3-41.5,0.2c-4.6,0.2-9.4,2-13.8,3.7c-13.3,5.1-26.2,11.5-39.8,15.6c-13.1,3.9-26.9,4.6-41.5,4.5
		c4.4-8.5,8.1-15.6,12.3-23.7c-17.6,0-32.9,0-48.8,0c-2.2,3.5-4.4,7-6.6,10.5c-17.4,27.9-35.3,55.4-58.7,78.9
		c-3.5,3.5-7.8,6.2-12.2,9.5c-5.7-8.9-0.8-15.2,2.2-20.8c12-22.9,24.8-45.3,37.2-68c1.6-3,3.1-6,5.1-9.9c-17.2,0-33,0-49.1,0
		c-8.8,16.2-17.5,32.1-26,47.5c-7.8,0-14.9,0-22.8,0c8.5-16.3,16.4-31.6,24.8-47.6c-17.7,0-33.3,0-49.4,0
		c-24.2,45.7-48.3,91.2-73,138c17.6,0,33.5,0,49.5,0c10.1-18.8,19.9-37.3,29.4-55.1c8.5,0,15.9,0,24.1,0c-1.1,3.3-1.8,5.6-2.7,7.8
		c-7.6,18.4-1.6,32.4,14.1,45c9.7,7.9,20.5,8.9,31.1,2.1c7.3-4.7,14-10.4,20.6-16c6.7-5.7,13.1-11.9,19.2-17.5
		c2.5,4.7,4.9,10.6,8.4,15.8c14.8,22.2,36.2,27.9,60.2,16.3c17-8.2,29-21.5,38.6-37.3c9.4-15.4,12.7-31,1.3-47
		c-0.2-0.3,0.3-1.1,0.3-1.3c10.6-2.4,21.1-4.8,32.6-7.5c-1.4,3.1-2.2,5.2-3.2,7.3c-6.5,13.9-13.7,27.5-19.4,41.7
		c-6.8,17-1.9,30.9,13.1,42.2c14.1,10.7,24.5,10.5,40.8-1.8c8.3-6.3,16-13.5,24.3-20.6c1.1,2.3,2.1,4.5,3.2,6.7
		c12.6,24.1,33.6,29.3,55.1,13.1c8-6.1,15.3-13.2,22.8-19.6c3.4,5.3,6.2,11,10.2,15.8c13.7,16.6,29.9,18.7,46.8,5.5
		c7.9-6.2,14.6-14,21.4-21.4c4.4-4.8,4.2-10-1.3-15c-7.3,0-14.9,0-24.7,0c2.4-6.7,3.8-12.3,6.4-17.3c12.5-23.8,25.4-47.4,38.1-71.1
		c1.4-2.6,2.3-5.3,3.7-8.6c-17.1,0-32.8,0-48.3,0C1381.7,202.4,1374.2,215,1365.7,226.9z M1117.7,287.6c-8.2-3-10.7-8.6-8.5-15.9
		c2.9-9.5,6.6-18.8,9.8-27.9c13.2,1.5,16.5,4.6,20.3,17.7C1135.7,273,1130.9,283.9,1117.7,287.6z"/>
	<path d="M889.8,707c3.5,0.4,5.8,1,8.1,1c16.8-0.4,33.6-0.2,50.2-1.6c84.2-7,164.8-28.3,242.1-62.4c5.3-2.4,9.3-5.4,12-10.8
		c8-15.9,16.7-31.4,25-47.2c0.9-1.8,1.4-3.8,2.3-6.5c-100.3,48.3-203.5,80.5-314.9,82.6C906.3,677,898.3,691.5,889.8,707z"/>
	<path d="M1306,132.3c-109.4-2.2-217.2-4.4-325.1-6.6c-3.8,7.1-7.3,13.7-11.6,21.7c112.3-2.2,222.5-4.4,332.7-6.6
		C1303.3,138,1304.3,135.9,1306,132.3z"/>
	<path d="M1444.8,120c-9.8,4.5-20.2,7.6-30.5,10.8c-4.1,1.3-8.7,1.1-13.1,1.6c-1.6-3.4-2.7-5.8-3.7-7.9c-10.4,0-20.2,0-31.5,0
		c-2,5.6-4.5,10.7-5.6,16.1c-3.1,15,4.7,25.1,20,24.6c8.6-0.2,17.4-2,25.6-4.7c24.5-8.1,45.6-22.4,66-37.9c2.1-1.6,3.9-3.5,7.1-6.4
		C1466.2,115.6,1455.5,115,1444.8,120z"/>
</g>
</svg>
