<?xml version="1.0" encoding="utf-8"?>
<!-- Generator: Adobe Illustrator 21.1.0, SVG Export Plug-In . SVG Version: 6.00 Build 0)  -->
<svg version="1.1" baseProfile="basic" id="Layer_1"
	 xmlns="http://www.w3.org/2000/svg" xmlns:xlink="http://www.w3.org/1999/xlink" x="0px" y="0px" viewBox="0 0 100 28"
	 xml:space="preserve">
<path d="M36.7,20.3h4.8c4.1-9.6,8.9-15.8,10.8-15.8c0.6,0,0.9,0.3,0.9,0.9c0,2.6-4,14.9-4,14.9H58l8.8-11.9c2.8,4.1,3.6,5.3,3.6,7
	c0,1.8-1.4,3-3.2,3c-1.3,0-2.7-0.8-3.6-2l-2.8,3.8c1.5,1.5,3.7,2.8,6.7,2.8c5,0,8-3,8-7.6c0-3.1-1.6-5.7-5.4-11.2l3-4h-5.8
	L55.4,16.2C56.5,12.6,58,7.5,58,4.8C58,1.6,56.2,0,53.5,0c-3.1,0-5.7,2-8.4,5.9l1.6-5.6H25.1L24,4.5h2.3c3.4,0,5.1,1.7,5.1,5
	c0,4.4-2.2,6.6-4.9,6.6c-2.3,0-3.6-1.3-3.6-4.2c0-1.8,0.4-3.6,1.4-5.4h-4.9c-0.9,1.8-1.4,4-1.4,5.8c0,5.2,3.1,8.3,8.2,8.3
	c5.8,0,10.2-4.5,10.2-11.1c0-2-0.5-3.7-1.5-5h6L36.7,20.3z M83.4,20.7c2.7,0,5-1.3,7.7-4.7l-1.2,4.4h4.8l5.4-20h-4.8l-0.7,1.6
	c-1.3-1-3.2-1.9-5.7-1.9C82.6,0,77,5.4,77,13.5C77,18.7,79.8,20.7,83.4,20.7L83.4,20.7z M21.1,22.5c-2.2-0.8-3.6-1.8-5.2-5l-3.4-6.8
	l8.6-10.4h-5.8L8.8,8.2H8l2.1-7.8H5.3l-5.4,20h4.8l2.1-7.8h1.4l3.4,7.2c2.3,4.8,5.2,6.6,8.2,7.4L21.1,22.5z M84.2,16.1
	c-1.5,0-2.2-0.7-2.2-2.3c0-5.9,3.8-9.2,7.2-9.2c1.3,0,2.5,0.6,3.4,1.5C89.3,12.6,86.2,16.1,84.2,16.1z"/>
</svg>
